<?xml version="1.0" encoding="UTF-8" standalone="no"?>
<!-- Created with Inkscape (http://www.inkscape.org/) -->

<svg
   xmlns:dc="http://purl.org/dc/elements/1.1/"
   xmlns:cc="http://creativecommons.org/ns#"
   xmlns:rdf="http://www.w3.org/1999/02/22-rdf-syntax-ns#"
   xmlns:svg="http://www.w3.org/2000/svg"
   xmlns="http://www.w3.org/2000/svg"
   xmlns:sodipodi="http://sodipodi.sourceforge.net/DTD/sodipodi-0.dtd"
   xmlns:inkscape="http://www.inkscape.org/namespaces/inkscape"
   version="1.1"
   id="svg2"
   xml:space="preserve"
   width="682.66669"
   height="682.66669"
   viewBox="0 0 682.66669 682.66669"
   sodipodi:docname="logo.svg"
   inkscape:version="0.92.2 5c3e80d, 2017-08-06"><metadata
     id="metadata8"><rdf:RDF><cc:Work
         rdf:about=""><dc:format>image/svg+xml</dc:format><dc:type
           rdf:resource="http://purl.org/dc/dcmitype/StillImage" /><dc:title /></cc:Work></rdf:RDF></metadata><defs
     id="defs6"><clipPath
       clipPathUnits="userSpaceOnUse"
       id="clipPath18"><path
         d="m 259.56,288.365 v -68.858 h 95.802 c -4.125,-22.25 -16.668,-41.105 -35.521,-53.726 v 0 -44.665 h 57.531 c 33.66,30.99 53.079,76.625 53.079,130.838 v 0 c 0,12.623 -1.132,24.76 -3.236,36.411 v 0 z"
         id="path16"
         inkscape:connector-curvature="0" /></clipPath><clipPath
       clipPathUnits="userSpaceOnUse"
       id="clipPath28"><path
         d="M 100.483,222.178 V 176.056 C 129.774,117.878 189.974,77.989 259.56,77.989 v 0 c 48.064,0 88.359,15.939 117.812,43.127 v 0 l -57.531,44.665 C 303.901,155.1 283.511,148.788 259.56,148.788 v 0 c -46.364,0 -85.608,31.315 -99.606,73.39 v 0 z"
         id="path26"
         inkscape:connector-curvature="0" /></clipPath><clipPath
       clipPathUnits="userSpaceOnUse"
       id="clipPath38"><path
         d="M 100.483,335.942 C 88.427,311.911 81.549,284.725 81.549,256 v 0 c 0,-28.725 6.878,-55.912 18.934,-79.944 v 0 l 59.471,46.122 c -3.56,10.68 -5.582,22.089 -5.582,33.822 v 0 c 0,11.732 2.022,23.141 5.582,33.822 v 0 46.12 z"
         id="path36"
         inkscape:connector-curvature="0" /></clipPath><clipPath
       clipPathUnits="userSpaceOnUse"
       id="clipPath48"><path
         d="m 100.483,335.942 59.471,-46.12 c 13.998,42.075 53.242,73.389 99.606,73.389 v 0 c 26.135,0 49.601,-8.982 68.049,-26.621 v 0 l 51.057,51.057 c -30.829,28.724 -71.123,46.365 -119.106,46.365 v 0 c -69.586,0 -129.786,-39.892 -159.077,-98.07"
         id="path46"
         inkscape:connector-curvature="0" /></clipPath></defs><sodipodi:namedview
     pagecolor="#ffffff"
     bordercolor="#666666"
     borderopacity="1"
     objecttolerance="10"
     gridtolerance="10"
     guidetolerance="10"
     inkscape:pageopacity="0"
     inkscape:pageshadow="2"
     inkscape:window-width="3196"
     inkscape:window-height="1763"
     id="namedview4"
     showgrid="false"
     inkscape:measure-start="288.75,460.75"
     inkscape:measure-end="0,0"
     showguides="true"
     inkscape:zoom="0.99999999"
     inkscape:cx="180.07115"
     inkscape:cy="199.49319"
     inkscape:window-x="0"
     inkscape:window-y="33"
     inkscape:window-maximized="0"
     inkscape:current-layer="layer3"
     inkscape:guide-bbox="true"><sodipodi:guide
       position="331.60938,151.08594"
       orientation="1,0"
       id="guide4649"
       inkscape:locked="false" /></sodipodi:namedview><g
     inkscape:groupmode="layer"
     id="layer2"
     inkscape:label="background"
     style="display:inline"
     sodipodi:insensitive="true"><path
       style="fill:#8427c5;fill-opacity:1;fill-rule:evenodd;stroke:#000000;stroke-width:1px;stroke-linecap:butt;stroke-linejoin:miter;stroke-opacity:1"
       d="m 291.328,112.73862 249.60869,-0.70711 -42.77996,423.55697 -175.36248,44.19417 z"
       id="path830"
       inkscape:connector-curvature="0" /></g><g
     inkscape:groupmode="layer"
     id="layer1"
     inkscape:label="middleground"
     style="display:inline"
     sodipodi:insensitive="true"><path
       style="display:inline;fill:#4722a3;fill-opacity:1"
       d="M 326.63309,600.62494 147.42758,549.58221 105.8234,89.498077 H 557.44278 L 516.0329,549.43161 332.13309,601.10763 Z M 481.23361,520.23089 516.59483,126.49808 H 331.63309 l -0.0318,434.98305 z"
       id="path4641"
       inkscape:connector-curvature="0"
       sodipodi:nodetypes="cccccccccccc" /></g><g
     inkscape:groupmode="layer"
     id="layer3"
     inkscape:label="letter"><path
       style="fill:#ffffff;fill-opacity:1;stroke-width:0.44732803"
       d="m 331.58966,404.77108 62.80383,-192.10831 -8.54782,-0.56555 -9.07929,-0.54217 v -41.38564 h 105.23118 v 41.38564 l -12.74458,0.54217 h -12.21311 l -2.13492,6.66417 -29.73711,92.05595 -7.75087,23.94584 -27.63322,85.4461 -6.46257,20.44433 11.20518,0.51043 11.73664,0.54217 v 41.83745 l -74.66711,0.59133 z"
       id="path912"
       inkscape:connector-curvature="0"
       sodipodi:nodetypes="ccccccccccccccccccc" /><path
       sodipodi:nodetypes="ccccccccccccccccccc"
       inkscape:connector-curvature="0"
       id="path916"
       d="m 331.60298,404.77108 -62.80383,-192.10831 8.54782,-0.56555 9.07929,-0.54217 V 170.16941 H 181.19508 v 41.38564 l 12.74458,0.54217 h 12.21311 l 2.13492,6.66417 29.73711,92.05595 7.75087,23.94584 27.63322,85.4461 6.46257,20.44433 -11.20518,0.51043 -11.73664,0.54217 v 41.83745 l 74.66711,0.59133 z"
       style="fill:#dadada;fill-opacity:1;stroke-width:0.44732803" /></g></svg>