<?xml version="1.0" encoding="UTF-8" standalone="no"?>
<!-- Created with Inkscape (http://www.inkscape.org/) -->

<svg
   xmlns:dc="http://purl.org/dc/elements/1.1/"
   xmlns:cc="http://creativecommons.org/ns#"
   xmlns:rdf="http://www.w3.org/1999/02/22-rdf-syntax-ns#"
   xmlns:svg="http://www.w3.org/2000/svg"
   xmlns="http://www.w3.org/2000/svg"
   xmlns:sodipodi="http://sodipodi.sourceforge.net/DTD/sodipodi-0.dtd"
   xmlns:inkscape="http://www.inkscape.org/namespaces/inkscape"
   version="1.1"
   id="svg2"
   xml:space="preserve"
   width="682.66669"
   height="682.66669"
   viewBox="0 0 682.66669 682.66669"
   sodipodi:docname="microsoft.svg"
   inkscape:version="0.92.2 5c3e80d, 2017-08-06"><metadata
     id="metadata8"><rdf:RDF><cc:Work
         rdf:about=""><dc:format>image/svg+xml</dc:format><dc:type
           rdf:resource="http://purl.org/dc/dcmitype/StillImage" /><dc:title></dc:title></cc:Work></rdf:RDF></metadata><defs
     id="defs6"><clipPath
       clipPathUnits="userSpaceOnUse"
       id="clipPath18"><path
         d="m 259.56,288.365 v -68.858 h 95.802 c -4.125,-22.25 -16.668,-41.105 -35.521,-53.726 v 0 -44.665 h 57.531 c 33.66,30.99 53.079,76.625 53.079,130.838 v 0 c 0,12.623 -1.132,24.76 -3.236,36.411 v 0 z"
         id="path16"
         inkscape:connector-curvature="0" /></clipPath><clipPath
       clipPathUnits="userSpaceOnUse"
       id="clipPath28"><path
         d="M 100.483,222.178 V 176.056 C 129.774,117.878 189.974,77.989 259.56,77.989 v 0 c 48.064,0 88.359,15.939 117.812,43.127 v 0 l -57.531,44.665 C 303.901,155.1 283.511,148.788 259.56,148.788 v 0 c -46.364,0 -85.608,31.315 -99.606,73.39 v 0 z"
         id="path26"
         inkscape:connector-curvature="0" /></clipPath><clipPath
       clipPathUnits="userSpaceOnUse"
       id="clipPath38"><path
         d="M 100.483,335.942 C 88.427,311.911 81.549,284.725 81.549,256 v 0 c 0,-28.725 6.878,-55.912 18.934,-79.944 v 0 l 59.471,46.122 c -3.56,10.68 -5.582,22.089 -5.582,33.822 v 0 c 0,11.732 2.022,23.141 5.582,33.822 v 0 46.12 z"
         id="path36"
         inkscape:connector-curvature="0" /></clipPath><clipPath
       clipPathUnits="userSpaceOnUse"
       id="clipPath48"><path
         d="m 100.483,335.942 59.471,-46.12 c 13.998,42.075 53.242,73.389 99.606,73.389 v 0 c 26.135,0 49.601,-8.982 68.049,-26.621 v 0 l 51.057,51.057 c -30.829,28.724 -71.123,46.365 -119.106,46.365 v 0 c -69.586,0 -129.786,-39.892 -159.077,-98.07"
         id="path46"
         inkscape:connector-curvature="0" /></clipPath></defs><sodipodi:namedview
     pagecolor="#ffffff"
     bordercolor="#666666"
     borderopacity="1"
     objecttolerance="10"
     gridtolerance="10"
     guidetolerance="10"
     inkscape:pageopacity="0"
     inkscape:pageshadow="2"
     inkscape:window-width="3196"
     inkscape:window-height="1763"
     id="namedview4"
     showgrid="false"
     inkscape:measure-start="539.99,213.746"
     inkscape:measure-end="0,0"
     showguides="false"
     inkscape:zoom="1"
     inkscape:cx="-399.67888"
     inkscape:cy="361.1715"
     inkscape:window-x="0"
     inkscape:window-y="33"
     inkscape:window-maximized="0"
     inkscape:current-layer="layer1" /><g
     inkscape:groupmode="layer"
     id="layer1"
     inkscape:label="microsoft"
     style="display:inline"><g
       id="g919"><path
         style="fill:#fcb712;stroke-width:1.02692819"
         d="m 107.94826,463.80345 c 0,-37.14057 0,-74.28113 0,-111.4217 74.28113,0 148.56227,0 222.8434,0 0,74.28114 0,148.56227 0,222.84341 -74.28113,0 -148.56227,0 -222.8434,0 0,-37.14057 0,-74.28114 0,-111.42171 z m 244.40889,0 c 0,-37.14057 0,-74.28113 0,-111.4217 74.28113,0 148.56227,0 222.8434,0 0,74.28114 0,148.56227 0,222.84341 -74.28113,0 -148.56227,0 -222.8434,0 0,-37.14057 0,-74.28114 0,-111.42171 z m 0,-244.92236 c 0,-37.31172 0,-74.62345 0,-111.93517 74.28113,0 148.56227,0 222.8434,0 0,74.62345 0,149.24689 0,223.87034 -74.28113,0 -148.56227,0 -222.8434,0 0,-37.31172 0,-74.62345 0,-111.93517 z m -244.40889,-0.51346 c 0,-37.14057 0,-74.28114 0,-111.42171 73.93882,0 147.87765,0 221.81647,0 0,74.28114 0,148.56227 0,222.84341 -73.93882,0 -147.87765,0 -221.81647,0 0,-37.14057 0,-74.28113 0,-111.4217 z"
         id="path927"
         inkscape:connector-curvature="0" /><path
         style="fill:#309fd9;stroke-width:1.02692819"
         d="m 107.94826,463.80345 c 0,-37.14057 0,-74.28113 0,-111.4217 74.28113,0 148.56227,0 222.8434,0 0,74.28114 0,148.56227 0,222.84341 -74.28113,0 -148.56227,0 -222.8434,0 0,-37.14057 0,-74.28114 0,-111.42171 z M 352.35715,218.88109 c 0,-37.31172 0,-74.62345 0,-111.93517 74.28113,0 148.56227,0 222.8434,0 0,74.62345 0,149.24689 0,223.87034 -74.28113,0 -148.56227,0 -222.8434,0 0,-37.31172 0,-74.62345 0,-111.93517 z m -244.40889,-0.51346 c 0,-37.14057 0,-74.28114 0,-111.42171 73.93882,0 147.87765,0 221.81647,0 0,74.28114 0,148.56227 0,222.84341 -73.93882,0 -147.87765,0 -221.81647,0 0,-37.14057 0,-74.28113 0,-111.4217 z"
         id="path925"
         inkscape:connector-curvature="0" /><path
         style="fill:#7eba40;stroke-width:1.02692819"
         d="m 352.35715,218.88109 c 0,-37.31172 0,-74.62345 0,-111.93517 74.28113,0 148.56227,0 222.8434,0 0,74.62345 0,149.24689 0,223.87034 -74.28113,0 -148.56227,0 -222.8434,0 0,-37.31172 0,-74.62345 0,-111.93517 z m -244.40889,-0.51346 c 0,-37.14057 0,-74.28114 0,-111.42171 73.93882,0 147.87765,0 221.81647,0 0,74.28114 0,148.56227 0,222.84341 -73.93882,0 -147.87765,0 -221.81647,0 0,-37.14057 0,-74.28113 0,-111.4217 z"
         id="path923"
         inkscape:connector-curvature="0" /><path
         style="fill:#ef5024;stroke-width:1.02692819"
         d="m 107.94826,218.36763 c 0,-37.14057 0,-74.28114 0,-111.42171 73.93882,0 147.87765,0 221.81647,0 0,74.28114 0,148.56227 0,222.84341 -73.93882,0 -147.87765,0 -221.81647,0 0,-37.14057 0,-74.28113 0,-111.4217 z"
         id="path921"
         inkscape:connector-curvature="0" /></g></g></svg>