<?xml version="1.0" standalone="no"?>
<!DOCTYPE svg PUBLIC "-//W3C//DTD SVG 20010904//EN"
 "http://www.w3.org/TR/2001/REC-SVG-20010904/DTD/svg10.dtd">
<svg version="1.0" xmlns="http://www.w3.org/2000/svg"
 width="700.000000pt" height="700.000000pt" viewBox="0 0 700.000000 700.000000"
 preserveAspectRatio="xMidYMid meet">
<metadata>
Created by potrace 1.11, written by Peter Selinger 2001-2013
</metadata>
<g transform="translate(0.000000,700.000000) scale(0.100000,-0.100000)"
fill="#000000" stroke="none">
<path d="M1087 6083 c-5 -9 419 -4712 425 -4718 12 -12 1840 -526 1873 -527
35 -1 1890 514 1905 528 7 8 429 4707 424 4716 -7 10 -4621 10 -4627 1z m1843
-1043 l0 -210 -77 0 c-43 0 -83 -4 -89 -8 -8 -5 88 -311 309 -989 177 -540
324 -980 327 -977 3 3 149 445 325 982 l321 977 -26 6 c-14 4 -53 7 -87 8
l-63 1 0 210 0 210 535 0 535 0 0 -210 0 -210 -127 0 -128 0 -300 -928 c-437
-1354 -456 -1414 -452 -1418 2 -3 54 -7 115 -11 l112 -6 0 -214 0 -213 -617 0
c-340 0 -682 3 -760 7 l-143 6 0 207 0 208 109 4 c60 2 113 6 117 10 8 8 12
-5 -402 1278 -179 553 -330 1019 -335 1037 l-10 32 -127 3 -127 3 -3 208 -2
207 535 0 535 0 0 -210z"/>
</g>
</svg>
