<svg version="1" xmlns="http://www.w3.org/2000/svg" width="933.333" height="933.333" viewBox="0 0 700.000000 700.000000"><path d="M108.5 95.7c.3 2.1 3.9 41.6 8 87.8 24.4 274.8 33.2 372.2 34 377.2.7 3.7 1.7 4.1 30 11.8 9.4 2.6 48.6 13.6 87.3 24.6 38.6 11 71.5 19.9 73 19.8 1.5-.2 3.2-.6 3.7-1 .6-.4 6.4-2.1 13-3.9 17-4.4 77.2-21.1 101.5-28 11.3-3.2 28.2-7.9 37.5-10.5 24.9-6.8 33.5-9.5 33.5-10.8 0-.7.4-5.9.9-11.7.6-5.8 1.2-13.7 1.5-17.5.8-9 26.1-292.9 28.1-314 .8-8.8 3.5-39 6-67 2.4-28.1 4.7-53.1 5-55.8l.6-4.7H108l.5 3.7zM483 188.9c0 .5-2.2 26.3-5 57.5-2.7 31.2-5 57.1-5 57.6 0 .6 4 1 9.5 1 7.1 0 9.7.3 10.1 1.3.4 1.3-2.7 40.9-4.2 52.9l-.6 4.8h-43.9c-34.3 0-44.1-.3-44.4-1.3-.8-2.1-5.4-56-4.9-56.9.3-.4 4.9-.8 10.4-.8h9.8l.6-6.8c.4-3.7 1.5-15.9 2.6-27.1 1.1-11.2 2-21.4 2-22.7V246h-53v101.4c0 96.1.1 101.4 1.8 101.1.9-.2 1.7-.4 1.7-.5 0-.1 1.7-.6 4.8-1.3.6-.1 1.8-.6 2.5-1.1.7-.4 1.6-.5 1.9-.2.3.3 1.1.2 1.7-.3 1.9-1.5 79.4-22.6 80.2-21.8.4.3-3.1 43.5-4.4 54.2l-.7 6-36.5 10.2c-45.7 12.8-57 15.9-69.5 19.3l-10 2.7-30.5-8.2c-45.9-12.3-86.4-23.7-87.4-24.6-1-.8-4-29.2-5.2-48.3l-.7-11.5 12.9 3.4c7.1 1.9 28.2 7.7 46.9 12.9l34 9.4.7-58.7c.4-32.2.7-78 .5-101.6l-.2-43-26.7-.3-26.8-.2v3.2c0 3.2 3.3 41 4.5 51.5l.6 5.1 9.4.4c5.1.1 9.7.6 10.1 1.1.7.6-3.2 52.6-4.1 55.5-.4 1-9.7 1.2-44.2 1l-43.8-.3-.7-6c-1.9-18.2-4.1-49.5-3.4-50.2.4-.4 5-1 10.1-1.1l9.3-.4-.4-3.1c-.8-5.6-9.4-106.7-9.4-110.3V188h143.5c81.4 0 143.5.4 143.5.9z"/></svg>